HIERARCHY
ROOT __0
{
	OFFSET 0.0 0.0 0.0
	CHANNELS 0
	JOINT Stomach
	{
		OFFSET 0.000000 1.313661 -0.931607
		CHANNELS 6 Xposition Yposition Zposition Xrotation Yrotation Zrotation
		JOINT Neck
		{
			OFFSET 0.000000 0.000000 3.239985
			CHANNELS 3 Xrotation Yrotation Zrotation
			JOINT Bone.002
			{
				OFFSET 0.000000 0.115047 0.700247
				CHANNELS 3 Xrotation Yrotation Zrotation
				End Site
				{
					OFFSET 0.000000 -0.341516 2.737026
				}
			}
		}
	}
	JOINT Arm1.L
	{
		OFFSET 0.948005 1.565209 1.795413
		CHANNELS 6 Xposition Yposition Zposition Xrotation Yrotation Zrotation
		JOINT Arm2.L
		{
			OFFSET 2.196612 0.000000 0.061764
			CHANNELS 3 Xrotation Yrotation Zrotation
			JOINT Hand.L
			{
				OFFSET 1.896183 0.045114 0.000030
				CHANNELS 3 Xrotation Yrotation Zrotation
				End Site
				{
					OFFSET 1.519370 0.036319 0.024340
				}
			}
		}
	}
	JOINT Thigh.L
	{
		OFFSET 0.918578 1.158038 -2.637168
		CHANNELS 6 Xposition Yposition Zposition Xrotation Yrotation Zrotation
		JOINT Leg.L
		{
			OFFSET 0.303742 0.000007 -1.798965
			CHANNELS 3 Xrotation Yrotation Zrotation
			End Site
			{
				OFFSET 0.216846 -0.040642 -3.693563
			}
		}
	}
	JOINT HandBend.L
	{
		OFFSET 6.560170 1.646643 1.881547
		CHANNELS 6 Xposition Yposition Zposition Xrotation Yrotation Zrotation
		End Site
		{
			OFFSET 0.046851 1.599632 0.028243
		}
	}
	JOINT FootBend.L
	{
		OFFSET 1.439166 1.117403 -8.129697
		CHANNELS 6 Xposition Yposition Zposition Xrotation Yrotation Zrotation
		JOINT Foot.L
		{
			OFFSET 0.000000 0.000000 0.000000
			CHANNELS 6 Xposition Yposition Zposition Xrotation Yrotation Zrotation
			End Site
			{
				OFFSET -0.014419 -2.154903 -0.745453
			}
		}
	}
	JOINT LegBend.L
	{
		OFFSET 1.285312 -2.920481 -7.605664
		CHANNELS 6 Xposition Yposition Zposition Xrotation Yrotation Zrotation
		End Site
		{
			OFFSET 0.004998 -0.017189 1.600040
		}
	}
	JOINT ArmBend.L
	{
		OFFSET 3.418412 -2.827438 -0.450937
		CHANNELS 6 Xposition Yposition Zposition Xrotation Yrotation Zrotation
		End Site
		{
			OFFSET 0.000000 0.000000 1.000000
		}
	}
	JOINT Arm1.R.001
	{
		OFFSET -0.948005 1.565209 1.795413
		CHANNELS 6 Xposition Yposition Zposition Xrotation Yrotation Zrotation
		JOINT Arm2.R.001
		{
			OFFSET -2.196612 0.000000 0.061764
			CHANNELS 3 Xrotation Yrotation Zrotation
			JOINT Hand.R.001
			{
				OFFSET -1.896183 0.045114 0.000031
				CHANNELS 3 Xrotation Yrotation Zrotation
				End Site
				{
					OFFSET -1.519370 0.036319 0.024340
				}
			}
		}
	}
	JOINT Thigh.R.001
	{
		OFFSET -0.918578 1.158038 -2.637168
		CHANNELS 6 Xposition Yposition Zposition Xrotation Yrotation Zrotation
		JOINT Leg.R.001
		{
			OFFSET -0.303742 0.000007 -1.798965
			CHANNELS 3 Xrotation Yrotation Zrotation
			End Site
			{
				OFFSET -0.216846 -0.040642 -3.693563
			}
		}
	}
	JOINT HandBend.R.001
	{
		OFFSET -6.560170 1.646643 1.881547
		CHANNELS 6 Xposition Yposition Zposition Xrotation Yrotation Zrotation
		End Site
		{
			OFFSET -0.046851 1.599632 0.028243
		}
	}
	JOINT FootBend.R.001
	{
		OFFSET -1.439166 1.117403 -8.129697
		CHANNELS 6 Xposition Yposition Zposition Xrotation Yrotation Zrotation
		JOINT Foot.R.001
		{
			OFFSET 0.000000 0.000000 0.000000
			CHANNELS 6 Xposition Yposition Zposition Xrotation Yrotation Zrotation
			End Site
			{
				OFFSET 0.014419 -2.154903 -0.745453
			}
		}
	}
	JOINT LegBend.R.001
	{
		OFFSET -1.285312 -2.920481 -7.605664
		CHANNELS 6 Xposition Yposition Zposition Xrotation Yrotation Zrotation
		End Site
		{
			OFFSET -0.004998 -0.017189 1.600040
		}
	}
	JOINT ArmBend.R.001
	{
		OFFSET -3.418412 -2.827438 -0.450937
		CHANNELS 6 Xposition Yposition Zposition Xrotation Yrotation Zrotation
		End Site
		{
			OFFSET 0.000000 0.000000 1.000000
		}
	}
}
MOTION
Frames: 11
Frame Time: 0.041667
0.000000 1.313661 -0.931607 -0.000000 0.000000 -0.000000 0.000001 0.000000 -0.000002 0.000001 -0.000000 0.000000 0.948005 1.565210 1.795413 7.894242 0.121123 0.110916 -0.000078 0.002571 0.002709 -0.000007 -0.000512 0.001217 0.918578 1.158038 -2.637169 4.720845 -5.974519 -90.947275 -0.042363 0.424091 -0.007000 6.560171 1.646643 1.881547 -0.000000 0.000000 -0.000000 1.439166 1.117403 -8.128668 -0.000000 0.000000 -0.000000 -0.000000 -0.000000 -0.000000 -0.000001 0.000000 -0.000000 1.285312 -2.920481 -7.605664 -0.000000 0.000000 0.000000 3.305573 -1.723560 1.370734 -0.000000 0.000000 -0.000000 -0.948005 1.565210 1.795413 152.946076 -23.980844 -1.571712 -9.509194 -21.903553 -38.402722 -5.760902 -13.112397 -36.461893 -0.918578 1.158038 -2.637168 -5.843991 4.830561 -88.056452 -0.000132 -0.001302 0.000026 -3.765569 0.538449 5.394439 0.000000 0.000000 0.000000 -1.439167 1.117403 -8.129696 0.000000 0.000000 0.000000 -0.000000 -0.000000 0.000002 0.000001 -0.000000 0.000000 -1.285312 -2.920481 -7.605663 0.000000 0.000000 0.000000 -3.418412 8.583260 -0.450937 -0.000000 0.000000 -0.000000 
0.000000 1.313661 -0.931607 -0.000000 0.000000 -0.000000 0.000001 0.000000 -0.000002 0.000001 -0.000000 0.000000 0.948005 1.565210 1.795413 7.894242 0.121123 0.110916 -0.000078 0.002571 0.002709 -0.000007 -0.000512 0.001217 0.918578 1.158038 -2.637169 4.720845 -5.974519 -90.947275 -0.042363 0.424091 -0.007000 6.560171 1.646643 1.881547 -0.000000 0.000000 -0.000000 1.439166 1.117403 -8.128668 -0.000000 0.000000 -0.000000 -0.000000 -0.000000 -0.000000 -0.000001 0.000000 -0.000000 1.285312 -2.920481 -7.605664 -0.000000 0.000000 0.000000 3.305573 -1.723560 1.370734 -0.000000 0.000000 -0.000000 -0.948005 1.565209 1.795413 153.448205 -23.437396 -3.850605 -7.553204 -19.926042 -33.418049 -4.373343 -11.299830 -31.440355 -0.918578 1.158038 -2.637168 -5.843991 4.830561 -88.056452 -0.000132 -0.001302 0.000026 -4.089239 0.494352 5.387831 0.000000 0.000000 0.000000 -1.439167 1.117403 -8.129696 0.000000 0.000000 0.000000 -0.000000 -0.000000 0.000002 0.000001 -0.000000 0.000000 -1.285312 -2.920481 -7.605663 0.000000 0.000000 0.000000 -3.418412 8.583260 -0.450937 -0.000000 0.000000 -0.000000 
0.000000 1.313661 -0.931607 -0.000000 0.000000 -0.000000 0.000001 0.000000 -0.000002 0.000001 -0.000000 0.000000 0.948005 1.565210 1.795413 7.894242 0.121123 0.110916 -0.000078 0.002571 0.002709 -0.000007 -0.000512 0.001217 0.918578 1.158038 -2.637169 4.720845 -5.974519 -90.947275 -0.042363 0.424091 -0.007000 6.560171 1.646643 1.881547 -0.000000 0.000000 -0.000000 1.439166 1.117403 -8.128668 -0.000000 0.000000 -0.000000 -0.000000 -0.000000 -0.000000 -0.000001 0.000000 -0.000000 1.285312 -2.920481 -7.605664 -0.000000 0.000000 0.000000 3.305573 -1.723560 1.370734 -0.000000 0.000000 -0.000000 -0.948005 1.565209 1.795413 153.735660 -23.844392 -8.176559 -4.880922 -16.415159 -25.747197 -2.588734 -8.337070 -23.731041 -0.918578 1.158038 -2.637168 -5.843991 4.830561 -88.056452 -0.000132 -0.001302 0.000026 -4.501268 0.447759 5.378398 0.000000 0.000000 0.000000 -1.439167 1.117403 -8.129696 0.000000 0.000000 0.000000 -0.000000 -0.000000 0.000002 0.000001 -0.000000 0.000000 -1.285312 -2.920481 -7.605663 0.000000 0.000000 0.000000 -3.418412 8.583260 -0.450937 -0.000000 0.000000 -0.000000 
0.000000 1.313661 -0.931607 -0.000000 0.000000 -0.000000 0.000001 0.000000 -0.000002 0.000001 -0.000000 0.000000 0.948005 1.565210 1.795413 7.894242 0.121123 0.110916 -0.000078 0.002571 0.002709 -0.000007 -0.000512 0.001217 0.918578 1.158038 -2.637169 4.720845 -5.974519 -90.947275 -0.042363 0.424091 -0.007000 6.560171 1.646643 1.881547 -0.000000 0.000000 -0.000000 1.439166 1.117403 -8.128668 -0.000000 0.000000 -0.000000 -0.000000 -0.000000 -0.000000 -0.000001 0.000000 -0.000000 1.285312 -2.920481 -7.605664 -0.000000 0.000000 0.000000 3.305573 -1.723560 1.370734 -0.000000 0.000000 -0.000000 -0.948005 1.565209 1.795413 152.999024 -26.722741 -17.129377 -1.642115 -9.602738 -13.437418 -0.683852 -3.421900 -11.485151 -0.918578 1.158038 -2.637168 -5.843991 4.830561 -88.056452 -0.000132 -0.001302 0.000026 -4.945859 0.399391 5.366295 0.000000 0.000000 0.000000 -1.439167 1.117403 -8.129696 0.000000 0.000000 0.000000 -0.000000 -0.000000 0.000002 0.000001 -0.000000 0.000000 -1.285312 -2.920481 -7.605663 0.000000 0.000000 0.000000 -3.418412 8.583260 -0.450937 -0.000000 0.000000 -0.000000 
0.000000 1.313661 -0.931607 -0.000000 0.000000 -0.000000 0.000001 0.000000 -0.000002 0.000001 -0.000000 0.000000 0.948005 1.565210 1.795413 7.894242 0.121123 0.110916 -0.000078 0.002571 0.002709 -0.000007 -0.000512 0.001217 0.918578 1.158038 -2.637169 4.720845 -5.974519 -90.947275 -0.042363 0.424091 -0.007000 6.560171 1.646643 1.881547 -0.000000 0.000000 -0.000000 1.439166 1.117403 -8.128668 -0.000000 0.000000 -0.000000 -0.000000 -0.000000 -0.000000 -0.000001 0.000000 -0.000000 1.285312 -2.920481 -7.605664 -0.000000 0.000000 0.000000 3.305573 -1.723560 1.370734 -0.000000 0.000000 -0.000000 -0.948005 1.565210 1.795413 150.373882 -31.073601 -28.904029 0.020366 1.064596 0.996965 -0.005310 -0.433157 0.222990 -0.918578 1.158038 -2.637168 -5.843991 4.830561 -88.056452 -0.000132 -0.001302 0.000026 -5.357809 0.350261 5.352029 0.000000 0.000000 0.000000 -1.439167 1.117403 -8.129696 0.000000 0.000000 0.000000 -0.000000 -0.000000 0.000002 0.000001 -0.000000 0.000000 -1.285312 -2.920481 -7.605663 0.000000 0.000000 0.000000 -3.418412 8.583260 -0.450937 -0.000000 0.000000 -0.000000 
0.000000 1.313661 -0.931607 -0.000000 0.000000 -0.000000 0.000001 0.000000 -0.000002 0.000001 -0.000000 0.000000 0.948005 1.565210 1.795413 7.894242 0.121123 0.110916 -0.000078 0.002571 0.002709 -0.000007 -0.000512 0.001217 0.918578 1.158038 -2.637169 4.720845 -5.974519 -90.947275 -0.042363 0.424091 -0.007000 6.560171 1.646643 1.881547 -0.000000 0.000000 -0.000000 1.439166 1.117403 -8.128668 -0.000000 0.000000 -0.000000 -0.000000 -0.000000 -0.000000 -0.000001 0.000000 -0.000000 1.285312 -2.920481 -7.605664 -0.000000 0.000000 0.000000 3.305573 -1.723560 1.370734 -0.000000 0.000000 -0.000000 -0.948005 1.565210 1.795413 151.186073 -29.369359 -27.586326 0.020362 1.064391 0.996622 -0.005314 -0.433347 0.222729 -0.918578 1.158038 -2.637168 -5.843991 4.830561 -88.056452 -0.000132 -0.001302 0.000026 -5.681330 0.301383 5.336314 0.000000 0.000000 0.000000 -1.439167 1.117403 -8.129696 0.000000 0.000000 0.000000 -0.000000 -0.000000 0.000002 0.000001 -0.000000 0.000000 -1.285312 -2.920481 -7.605663 0.000000 0.000000 0.000000 -3.418412 8.583260 -0.450937 -0.000000 0.000000 -0.000000 
0.000000 1.313661 -0.931607 -0.000000 0.000000 -0.000000 0.000001 0.000000 -0.000002 0.000001 -0.000000 0.000000 0.948005 1.565210 1.795413 7.894242 0.121123 0.110916 -0.000078 0.002571 0.002709 -0.000007 -0.000512 0.001217 0.918578 1.158038 -2.637169 4.720845 -5.974519 -90.947275 -0.042363 0.424091 -0.007000 6.560171 1.646643 1.881547 -0.000000 0.000000 -0.000000 1.439166 1.117403 -8.128668 -0.000000 0.000000 -0.000000 -0.000000 -0.000000 -0.000000 -0.000001 0.000000 -0.000000 1.285312 -2.920481 -7.605664 -0.000000 0.000000 0.000000 3.305573 -1.723560 1.370734 -0.000000 0.000000 -0.000000 -0.948005 1.565209 1.795413 151.688174 -28.271569 -26.942890 0.020363 1.064258 0.996413 -0.005308 -0.433459 0.222577 -0.918578 1.158038 -2.637168 -5.843991 4.830561 -88.056452 -0.000132 -0.001302 0.000026 -5.882300 0.253520 5.319858 0.000000 0.000000 0.000000 -1.439167 1.117403 -8.129696 0.000000 0.000000 0.000000 -0.000000 -0.000000 0.000002 0.000001 -0.000000 0.000000 -1.285312 -2.920481 -7.605663 0.000000 0.000000 0.000000 -3.418412 8.583260 -0.450937 -0.000000 0.000000 -0.000000 
0.000000 1.313661 -0.931607 -0.000000 0.000000 -0.000000 0.000001 0.000000 -0.000002 0.000001 -0.000000 0.000000 0.948005 1.565210 1.795413 7.894242 0.121123 0.110916 -0.000078 0.002571 0.002709 -0.000007 -0.000512 0.001217 0.918578 1.158038 -2.637169 4.720845 -5.974519 -90.947275 -0.042363 0.424091 -0.007000 6.560171 1.646643 1.881547 -0.000000 0.000000 -0.000000 1.439166 1.117403 -8.128668 -0.000000 0.000000 -0.000000 -0.000000 -0.000000 -0.000000 -0.000001 0.000000 -0.000000 1.285312 -2.920481 -7.605664 -0.000000 0.000000 0.000000 3.305573 -1.723560 1.370734 -0.000000 0.000000 -0.000000 -0.948005 1.565210 1.795413 151.920715 -27.735276 -26.930022 0.020364 1.064223 0.996348 -0.005320 -0.433498 0.222522 -0.918578 1.158038 -2.637168 -5.843991 4.830561 -88.056452 -0.000132 -0.001302 0.000026 -5.948380 0.207100 5.303208 0.000000 0.000000 0.000000 -1.439167 1.117403 -8.129696 0.000000 0.000000 0.000000 -0.000000 -0.000000 0.000002 0.000001 -0.000000 0.000000 -1.285312 -2.920481 -7.605663 0.000000 0.000000 0.000000 -3.418412 8.583260 -0.450937 -0.000000 0.000000 -0.000000 
0.000000 1.313661 -0.931607 -0.000000 0.000000 -0.000000 0.000001 0.000000 -0.000002 0.000001 -0.000000 0.000000 0.948005 1.565210 1.795413 7.894242 0.121123 0.110916 -0.000078 0.002571 0.002709 -0.000007 -0.000512 0.001217 0.918578 1.158038 -2.637169 4.720845 -5.974519 -90.947275 -0.042363 0.424091 -0.007000 6.560171 1.646643 1.881547 -0.000000 0.000000 -0.000000 1.439166 1.117403 -8.128668 -0.000000 0.000000 -0.000000 -0.000000 -0.000000 -0.000000 -0.000001 0.000000 -0.000000 1.285312 -2.920481 -7.605664 -0.000000 0.000000 0.000000 3.305573 -1.723560 1.370734 -0.000000 0.000000 -0.000000 -0.948005 1.565209 1.795413 151.936575 -27.661276 -27.477585 0.020363 1.064256 0.996401 -0.005308 -0.433464 0.222569 -0.918578 1.158038 -2.637168 -5.843991 4.830561 -88.056452 -0.000132 -0.001302 0.000026 -5.891337 0.160454 5.285484 0.000000 0.000000 0.000000 -1.439167 1.117403 -8.129696 0.000000 0.000000 0.000000 -0.000000 -0.000000 0.000002 0.000001 -0.000000 0.000000 -1.285312 -2.920481 -7.605663 0.000000 0.000000 0.000000 -3.418412 8.583260 -0.450937 -0.000000 0.000000 -0.000000 
0.000000 1.313661 -0.931607 -0.000000 0.000000 -0.000000 0.000001 0.000000 -0.000002 0.000001 -0.000000 0.000000 0.948005 1.565210 1.795413 7.894242 0.121123 0.110916 -0.000078 0.002571 0.002709 -0.000007 -0.000512 0.001217 0.918578 1.158038 -2.637169 4.720845 -5.974519 -90.947275 -0.042363 0.424091 -0.007000 6.560171 1.646643 1.881547 -0.000000 0.000000 -0.000000 1.439166 1.117403 -8.128668 -0.000000 0.000000 -0.000000 -0.000000 -0.000000 -0.000000 -0.000001 0.000000 -0.000000 1.285312 -2.920481 -7.605664 -0.000000 0.000000 0.000000 3.305573 -1.723560 1.370734 -0.000000 0.000000 -0.000000 -0.948005 1.565209 1.795413 151.758853 -27.998387 -28.577926 0.020365 1.064362 0.996575 -0.005311 -0.433371 0.222694 -0.918578 1.158038 -2.637168 -5.843991 4.830561 -88.056452 -0.000132 -0.001302 0.000026 -5.722384 0.111899 5.265491 0.000000 0.000000 0.000000 -1.439167 1.117403 -8.129696 0.000000 0.000000 0.000000 -0.000000 -0.000000 0.000002 0.000001 -0.000000 0.000000 -1.285312 -2.920481 -7.605663 0.000000 0.000000 0.000000 -3.418412 8.583260 -0.450937 -0.000000 0.000000 -0.000000 
0.000000 1.313661 -0.931607 -0.000000 0.000000 -0.000000 0.000001 0.000000 -0.000002 0.000001 -0.000000 0.000000 0.948005 1.565210 1.795413 7.894242 0.121123 0.110916 -0.000078 0.002571 0.002709 -0.000007 -0.000512 0.001217 0.918578 1.158038 -2.637169 4.720845 -5.974519 -90.947275 -0.042363 0.424091 -0.007000 6.560171 1.646643 1.881547 -0.000000 0.000000 -0.000000 1.439166 1.117403 -8.128668 -0.000000 0.000000 -0.000000 -0.000000 -0.000000 -0.000000 -0.000001 0.000000 -0.000000 1.285312 -2.920481 -7.605664 -0.000000 0.000000 0.000000 3.305573 -1.723560 1.370734 -0.000000 0.000000 -0.000000 -0.948005 1.565210 1.795413 151.373712 -28.765413 -30.283221 0.020368 1.064545 0.996866 -0.005306 -0.433214 0.222918 -0.918578 1.158038 -2.637168 -5.843991 4.830561 -88.056452 -0.000132 -0.001302 0.000026 -5.448532 0.061841 5.243308 0.000000 0.000000 0.000000 -1.439167 1.117403 -8.129696 0.000000 0.000000 0.000000 -0.000000 -0.000000 0.000002 0.000001 -0.000000 0.000000 -1.285312 -2.920481 -7.605663 0.000000 0.000000 0.000000 -3.418412 8.583260 -0.450937 -0.000000 0.000000 -0.000000 
